<svg width="287" height="58" viewBox="0 0 287 58" fill="none" xmlns="http://www.w3.org/2000/svg">
<path fill-rule="evenodd" clip-rule="evenodd" d="M106.392 29L95.9999 11L85.6076 29L75.2153 47H95.9999H116.785L106.392 29ZM106.392 29L95.9999 47L85.6076 29H106.392Z" fill="black"/>
<path d="M34.752 28.376V47H29.04L28.512 43.304C26.976 45 25.424 46.168 23.856 46.808C22.32 47.448 20.352 47.768 17.952 47.768C13.12 47.768 9.232 46.168 6.288 42.968C3.344 39.768 1.872 35.544 1.872 30.296C1.872 24.824 3.456 20.424 6.624 17.096C9.792 13.736 13.984 12.056 19.2 12.056C23.392 12.056 26.832 13.128 29.52 15.272C32.24 17.416 33.824 20.472 34.272 24.44H25.632C24.704 21.208 22.512 19.592 19.056 19.592C17.136 19.592 15.536 20.12 14.256 21.176C13.008 22.2 12.144 23.464 11.664 24.968C11.184 26.472 10.944 28.168 10.944 30.056C10.944 33.224 11.616 35.784 12.96 37.736C14.336 39.688 16.528 40.664 19.536 40.664C21.616 40.664 23.184 40.2 24.24 39.272C25.328 38.312 26.112 36.824 26.592 34.808H20.4V28.376H34.752ZM40.3354 47V12.824H58.1434C61.5354 12.824 64.3034 13.672 66.4474 15.368C68.6234 17.032 69.7114 19.48 69.7114 22.712C69.7114 26.68 67.9514 29.464 64.4314 31.064C66.7034 31.832 68.1434 33.304 68.7514 35.48C69.1674 36.888 69.5194 39.304 69.8074 42.728C69.8074 42.824 69.8234 43.048 69.8554 43.4C69.8874 43.72 69.9034 43.944 69.9034 44.072C69.9354 44.2 69.9674 44.408 69.9994 44.696C70.0314 44.952 70.0634 45.16 70.0954 45.32C70.1594 45.448 70.2234 45.624 70.2874 45.848C70.3514 46.072 70.4314 46.28 70.5274 46.472C70.6554 46.632 70.7834 46.808 70.9114 47H61.8394C61.5834 46.392 61.3914 45.704 61.2634 44.936C61.1354 44.136 61.0394 43.176 60.9754 42.056C60.9114 40.936 60.8634 40.2 60.8314 39.848C60.6074 37.8 60.0474 36.36 59.1514 35.528C58.2554 34.696 56.7834 34.28 54.7354 34.28H49.2634V47H40.3354ZM49.2634 27.944H55.5514C57.2474 27.944 58.5594 27.656 59.4874 27.08C60.4474 26.504 60.9274 25.384 60.9274 23.72C60.9274 21.064 59.1034 19.736 55.4554 19.736H49.2634V27.944Z" fill="black"/>
<path d="M123.361 47V12.824H138.385C142.577 12.824 145.873 13.736 148.273 15.56C150.673 17.384 151.873 20.312 151.873 24.344C151.873 28.056 150.785 30.856 148.609 32.744C146.433 34.632 143.505 35.576 139.825 35.576H132.289V47H123.361ZM132.289 28.664H137.329C138.257 28.664 139.009 28.632 139.585 28.568C140.161 28.472 140.753 28.296 141.361 28.04C142.001 27.784 142.465 27.368 142.753 26.792C143.073 26.184 143.233 25.4 143.233 24.44C143.233 22.872 142.785 21.768 141.889 21.128C140.993 20.456 139.713 20.12 138.049 20.12H132.289V28.664ZM185.692 12.824V47H176.716V32.888H165.148V47H156.172V12.824H165.148V25.016H176.716V12.824H185.692ZM219.159 12.824V20.024H200.679V25.928H217.575V32.84H200.679V39.512H219.591V47H191.799V12.824H219.159ZM242.13 47H231.858L221.01 12.824H230.37L237.042 38.216L243.858 12.824H253.266L242.13 47Z" fill="black"/>
<path fill-rule="evenodd" clip-rule="evenodd" d="M270 47C279.389 47 287 39.3888 287 30C287 20.6112 279.389 13 270 13C260.611 13 253 20.6112 253 30C253 39.3888 260.611 47 270 47ZM270 39C274.971 39 279 34.9706 279 30C279 25.0294 274.971 21 270 21C265.029 21 261 25.0294 261 30C261 34.9706 265.029 39 270 39Z" fill="black"/>
</svg>
